<svg xmlns="http://www.w3.org/2000/svg" width="1600" height="1000" viewBox="0 0 1600 1000">
    <defs>
      <linearGradient id="g" x1="0" x2="1" y1="0" y2="1"><stop offset="0%" stop-color="#ff7a00"/><stop offset="100%" stop-color="#f0b429"/></linearGradient>
      <linearGradient id="sky" x1="0" x2="0" y1="0" y2="1"><stop offset="0%" stop-color="#dff3ff"/><stop offset="100%" stop-color="#ffffff"/></linearGradient>
    </defs>
    <rect width="1600" height="1000" fill="url(#sky)"/>
    <circle cx="1300" cy="170" r="90" fill="#ffd166" opacity="0.9"/>
    <path d="M0 700 C180 620 280 650 450 590 C590 540 680 560 840 490 C1050 400 1250 430 1600 360 L1600 1000 L0 1000 Z" fill="url(#g)" opacity="0.95"/>
    <path d="M0 760 C220 700 380 720 590 670 C780 620 980 640 1240 560 C1360 525 1480 500 1600 470 L1600 1000 L0 1000 Z" fill="#2f4b89" opacity="0.85"/>
    <path d="M120 560 L310 230 L500 560 Z" fill="#f4f7fb"/>
    <path d="M360 620 L640 150 L930 620 Z" fill="#e9eef7"/>
    <path d="M730 580 L1020 210 L1290 580 Z" fill="#f5f8fc"/>
    <path d="M260 380 L310 300 L360 380 Z" fill="#cfd9ea"/>
    <path d="M570 320 L640 200 L710 320 Z" fill="#c8d5e8"/>
    <path d="M930 310 L1020 190 L1110 310 Z" fill="#c9d7ea"/>
    <rect x="0" y="800" width="1600" height="200" fill="#0f2557" opacity="0.18"/>
    <rect x="1080" y="500" width="200" height="220" rx="16" fill="#9a3412"/><rect x="1120" y="420" width="120" height="110" rx="14" fill="#ea580c"/><rect x="1145" y="360" width="70" height="70" rx="10" fill="#f59e0b"/>
    <rect x="58" y="60" width="560" height="170" rx="28" fill="#08162f" opacity="0.72"/>
    <text x="96" y="132" font-family="Inter, Arial, sans-serif" font-size="66" font-weight="800" fill="#ffffff">Kathmandu Heritage</text>
    <text x="96" y="188" font-family="Inter, Arial, sans-serif" font-size="34" font-weight="600" fill="#ffb56a">Squares, temples, and local stories</text>
    </svg>